<svg xmlns="http://www.w3.org/2000/svg" xmlns:xlink="http://www.w3.org/1999/xlink" width="84.07146282867132" height="95" viewBox="0 0 84.07146282867132 95" fill="none"><defs><rect id="path_0" x="0" y="0" width="84.0714628286713" height="95" /></defs><g opacity="1" transform="translate(0 0)  rotate(0 42.03573141433565 47.5)"><mask id="bg-mask-0" fill="white"><use xlink:href="#path_0"></use></mask><g mask="url(#bg-mask-0)" ><g opacity="1" transform="translate(0 -0.22093023255815578)  rotate(0 42.52451898892096 47.720930232558146)"><g opacity="1" transform="translate(42.54582841309211 0)  rotate(0 21.251604782374898 47.720930232558146)"><g opacity="1" transform="translate(3.552713678800501e-15 0)  rotate(0 21.251604782374898 47.720930232558146)"><path id="路径 2" fill-rule="evenodd" style="fill:#02CCFE" transform="translate(0 0)  rotate(0 21.251604782374898 38.95208162309815)" opacity="1" d="M42.42,28.82C42.41,24.88 40.47,21.97 37.14,20.03C26.46,13.82 15.77,7.63 5.08,1.45C3.39,0.48 1.69,0 0,0L0,11.59C1.53,11.63 3.11,12.18 4.9,13.23C11.83,17.25 18.59,21.58 25.71,25.22C30.66,27.75 32.48,31.32 32.4,36.68C32.22,49.27 32.33,61.85 32.35,74.44C32.35,75.49 32.54,76.54 32.68,77.9C37.89,75.39 42.46,72.87 42.48,66.57C42.53,53.99 42.48,41.41 42.42,28.82Z " /><path id="路径 3" fill-rule="evenodd" style="fill:#02CCFE" transform="translate(0 27.38955004393396)  rotate(0 9.109296890508219 34.02615521059119)" opacity="1" d="M18.18,13.29C18.18,5.88 15.08,1.98 7.25,0C7.18,1.08 7.08,1.91 7.07,2.74C7.06,5.9 6.99,9.07 7.1,12.24C7.16,14.02 6.52,14.69 4.74,14.65C3.16,14.6 1.58,14.59 0,14.59L0,26.13C1.67,26.13 3.34,26.12 5,26.08C6.61,26.06 7.03,26.81 7.02,28.28C6.99,36.07 7.05,43.87 6.99,51.66C6.98,52.48 6.58,53.58 5.98,54.08C3.91,55.78 2.01,56.56 0,56.49L0,68.05C1.87,68.05 3.75,67.5 5.62,66.39C8.85,64.48 12.03,62.47 15.37,60.8C17.66,59.66 18.23,58.05 18.22,55.67C18.14,41.54 18.18,27.41 18.18,13.29Z " /></g></g><g opacity="1" transform="translate(0 0.00002057942653249656)  rotate(0 21.273822763657375 47.72000531586043)"><g opacity="1" transform="translate(0 0)  rotate(0 21.273822763657375 47.72000531586043)"><path id="路径 4" fill-rule="evenodd" style="fill:#67FECB" transform="translate(0 17.84972533123327)  rotate(0 21.273822763657375 38.795142650243804)" opacity="1" d="M42.55,77.59L42.55,66.03C41.04,65.97 39.46,65.43 37.71,64.41C30.55,60.28 23.5,55.97 16.23,52.04C11.96,49.74 10.17,46.58 10.24,41.74C10.41,28.9 10.29,16.05 10.26,3.21C10.26,2.17 10.05,1.12 9.93,0C3.47,2.13 0.14,5.91 0.08,11.62C-0.05,23.86 0.01,36.1 0.06,48.34C0.07,52.42 1.86,55.6 5.41,57.66C15.94,63.78 26.49,69.88 37.03,75.98C38.88,77.05 40.71,77.59 42.55,77.59Z " /><path id="路径 5" fill-rule="evenodd" style="fill:#67FECB" transform="translate(24.390566987621494 0)  rotate(0 9.077630712735314 33.94495148990666)" opacity="1" d="M13.04,1.49C9.8,3.36 6.6,5.33 3.27,7.04C0.83,8.28 -0.02,9.96 0,12.73C0.13,27.28 0.05,41.84 0.06,56.39C0.06,62.19 4.8,67.28 10.99,67.89C11.04,66.97 11.13,66.05 11.14,65.14C11.16,61.97 11.19,58.8 11.12,55.64C11.09,54.13 11.62,53.44 13.19,53.47C14.84,53.5 16.5,53.51 18.16,53.51L18.16,41.97C16.58,41.97 15.01,41.99 13.44,42.03C11.82,42.06 11.16,41.49 11.18,39.79C11.23,32 11.15,24.21 11.22,16.42C11.23,15.6 11.64,14.5 12.24,14.01C14.33,12.32 16.19,11.53 18.16,11.58L18.16,0C16.45,0 14.74,0.5 13.04,1.49Z " /></g></g></g></g></g></svg>